<svg width="50" height="49" viewBox="0 0 50 49" fill="none" xmlns="http://www.w3.org/2000/svg">
<path d="M50 5.99219C50 4.59699 49.4421 3.41644 48.4375 2.34322C47.3214 1.37731 46.0936 0.840698 44.6429 0.840698H5.35714C3.79464 0.840698 2.56696 1.37731 1.5625 2.34322C0.446429 3.41644 0 4.59699 0 5.99219V43.7698C0 45.2723 0.446429 46.4527 1.5625 47.4188C2.56696 48.492 3.79464 48.9213 5.35714 48.9213H27.3436V29.9253H20.5357V22.6274H27.3436V17.2611C27.3436 14.256 28.125 12.0023 29.9107 10.2851C31.6964 8.56794 34.04 7.70935 37.0536 7.70935C39.2857 7.70935 41.2946 7.81668 42.8571 8.03132V14.4707H38.8393C37.3886 14.4707 36.3839 14.7927 35.8257 15.4366C35.3793 16.0805 35.1564 16.9391 35.1564 18.0123V22.6274H42.8571L41.8529 29.9253H35.1564V48.9213H44.6429C46.0936 48.9213 47.3214 48.492 48.4375 47.4188C49.4421 46.4527 50 45.2723 50 43.7698V5.99219Z" fill="white"/>
</svg>
