<svg width="50" height="49" viewBox="0 0 50 49" fill="none" xmlns="http://www.w3.org/2000/svg">
<path d="M25 12.5389C27.2321 12.5389 29.3527 13.1828 31.3616 14.256C33.3705 15.3293 34.933 16.8318 36.0493 18.7636C37.165 20.6954 37.835 22.7345 37.835 24.881C37.835 27.1348 37.165 29.1739 36.0493 31.1057C34.933 33.0375 33.3705 34.54 31.3616 35.6133C29.3527 36.6865 27.2321 37.2233 25 37.2233C22.6562 37.2233 20.5357 36.6865 18.5268 35.6133C16.5179 34.54 14.9554 33.0375 13.8393 31.1057C12.7232 29.1739 12.1652 27.1348 12.1652 24.881C12.1652 22.7345 12.7232 20.6954 13.8393 18.7636C14.9554 16.8318 16.5179 15.3293 18.5268 14.256C20.5357 13.1828 22.6562 12.5389 25 12.5389ZM25 32.9302C27.2321 32.9302 29.2411 32.1789 30.9152 30.5691C32.4777 29.0666 33.3705 27.1348 33.3705 24.881C33.3705 22.7345 32.4777 20.8027 30.9152 19.1929C29.2411 17.6904 27.2321 16.8318 25 16.8318C22.6562 16.8318 20.6473 17.6904 19.0848 19.1929C17.4107 20.8027 16.6295 22.7345 16.6295 24.881C16.6295 27.1348 17.4107 29.0666 19.0848 30.5691C20.6473 32.1789 22.6562 32.9302 25 32.9302ZM41.4064 12.0023C41.4064 11.251 41.0714 10.6071 40.5136 9.96313C39.8436 9.42652 39.1743 9.10455 38.3929 9.10455C37.5 9.10455 36.8304 9.42652 36.2721 9.96313C35.6027 10.6071 35.3795 11.251 35.3795 12.0023C35.3795 12.8608 35.6027 13.5048 36.2721 14.0414C36.8304 14.6853 37.5 14.9 38.3929 14.9C39.1743 14.9 39.8436 14.6853 40.4018 14.0414C40.96 13.5048 41.2946 12.8608 41.4064 12.0023ZM49.8886 14.9C49.8886 16.9391 50 20.2661 50 24.881C50 29.6032 49.8886 32.9302 49.7768 34.9693C49.665 37.0083 49.3304 38.7255 48.8839 40.2283C48.2143 42.0526 47.0982 43.6627 45.7589 44.9505C44.4196 46.2384 42.7457 47.2041 40.96 47.8481C39.3971 48.3849 37.5 48.7066 35.3795 48.8141C33.2589 48.9213 29.7991 48.9213 25 48.9213C20.0893 48.9213 16.6295 48.9213 14.5089 48.8141C12.3884 48.7066 10.6027 48.3849 9.04018 47.7406C7.14286 47.2041 5.46875 46.2384 4.12946 44.9505C2.79018 43.6627 1.78571 42.0526 1.11607 40.2283C0.558036 38.7255 0.223214 37.0083 0.111607 34.9693C0 32.9302 0 29.6032 0 24.881C0 20.2661 0 16.9391 0.111607 14.9C0.223214 12.8608 0.558036 11.0364 1.11607 9.53384C1.78571 7.81668 2.79018 6.20684 4.12946 4.91896C5.46875 3.63109 7.14286 2.55786 9.04018 1.91393C10.6027 1.48463 12.3884 1.16267 14.5089 1.05534C16.6295 0.948021 20.0893 0.840698 25 0.840698C29.7991 0.840698 33.2589 0.948021 35.3795 1.05534C37.5 1.16267 39.3971 1.48463 40.96 1.91393C42.7457 2.55786 44.4196 3.63109 45.7589 4.91896C47.0982 6.20684 48.2143 7.81668 48.8839 9.53384C49.3304 11.0364 49.665 12.8608 49.8886 14.9ZM44.5314 39.0476C44.9779 37.8669 45.2007 35.9354 45.4243 33.2522C45.4243 31.7497 45.5357 29.4959 45.5357 26.5982V23.1638C45.5357 20.2661 45.4243 18.0123 45.4243 16.5098C45.2007 13.8268 44.9779 11.8949 44.5314 10.7144C43.6386 8.56794 41.9643 6.9581 39.7321 6.09951C38.5043 5.67022 36.4957 5.45558 33.7054 5.24093C32.0312 5.24093 29.6875 5.13361 26.7857 5.13361H23.2143C20.2009 5.13361 17.8571 5.24093 16.2946 5.24093C13.5045 5.45558 11.4955 5.67022 10.2679 6.09951C7.92411 6.9581 6.36161 8.56794 5.46875 10.7144C5.02232 11.8949 4.6875 13.8268 4.57589 16.5098C4.46429 18.1197 4.46429 20.3734 4.46429 23.1638V26.5982C4.46429 29.4959 4.46429 31.7497 4.57589 33.2522C4.6875 35.9354 5.02232 37.8669 5.46875 39.0476C6.36161 41.3012 8.03571 42.8041 10.2679 43.6627C11.4955 44.0919 13.5045 44.4137 16.2946 44.5212C17.8571 44.6284 20.2009 44.6284 23.2143 44.6284H26.7857C29.7991 44.6284 32.1429 44.6284 33.7054 44.5212C36.4957 44.4137 38.5043 44.0919 39.7321 43.6627C41.9643 42.8041 43.6386 41.1941 44.5314 39.0476Z" fill="white"/>
</svg>
