<svg xmlns="http://www.w3.org/2000/svg" xmlns:xlink="http://www.w3.org/1999/xlink" viewBox="0 0 252.1957 52.915"><defs><linearGradient id="a" x1="39.4375" y1="63.59" x2="39.4375" y2="91.465" gradientTransform="matrix(1, 0, 0, -1, 0, 169.89)" gradientUnits="userSpaceOnUse"><stop offset="0" stop-color="#ca3d3d"/><stop offset="0.355" stop-color="#cb3f3f"/><stop offset="0.5" stop-color="#cc4646"/><stop offset="0.607" stop-color="#d05252"/><stop offset="0.695" stop-color="#d56464"/><stop offset="0.772" stop-color="#db7b7b"/><stop offset="0.84" stop-color="#e39797"/><stop offset="0.903" stop-color="#ecb8b8"/><stop offset="0.959" stop-color="#f6dede"/><stop offset="1" stop-color="#fff"/></linearGradient></defs><title>logo_ru_new</title><path d="M30.2,84.4a0.9885,0.9885,0,0,0,.4,1.2h1.5c1.4,0,1.4,0,1.4-1.6V80c0.8-5.1,9.8-5.5,11.3-.4,0,0.3.1,0.6,0.1,0.9V84c0,2.3,0,2.3,2.7,2.3h3.3a2.7686,2.7686,0,0,1,.9.1c3.8,1.3,4.9,8.8.2,11.3a4.1908,4.1908,0,0,1-1.5.4H47.3c-2,0-2,.1-2,2.2v4.8a1.2675,1.2675,0,0,0,.4.9,3.7918,3.7918,0,0,0,3.1,1c8.8-4.2,21.3-22.5,8-31a26.9424,26.9424,0,0,0-11-3.6C39.4,71.8,32,72.8,30.2,84.4Z" transform="translate(-25.4 -58.56)" fill="#aac8d0"/><path d="M49.7,88.3h-5a1.538,1.538,0,0,1-1.5-1.5v-5c0-4.5-7.9-4.5-7.9,0v5a1.538,1.538,0,0,1-1.5,1.5h-5c-3.5,0-3.5,7.9,0,7.9h5a1.538,1.538,0,0,1,1.5,1.5v5c0,4.8,7.9,4.8,7.9,0v-5a1.538,1.538,0,0,1,1.5-1.5h5C53.7,96.2,53.7,88.3,49.7,88.3Z" transform="translate(-25.4 -58.56)" stroke="#ca3d3d" stroke-miterlimit="10" stroke-width="0.7087" fill="url(#a)"/><path d="M42.9,108.3a13.78,13.78,0,0,0,1.6.6c0.7,0.2,1.5.5,2.4,0.7a24.9961,24.9961,0,0,0,2.9.5c1,0.1,2.2.1,3.3,0.1a22.0994,22.0994,0,0,0,3.5-.4,23.69,23.69,0,0,0,3.6-.9,28.3674,28.3674,0,0,0,6.5-3.3c0.5-.4,1-0.7,1.4-1a11.9853,11.9853,0,0,1,1.2-1.1,21.3147,21.3147,0,0,0,2.1-2.2,11.538,11.538,0,0,0,1.5-2A41.728,41.728,0,0,0,75.7,94l-1,2s-1.3,2.7-1.7,3.3a11.9052,11.9052,0,0,1-1.5,2.1,20.5256,20.5256,0,0,1-2,2.3l-1.2,1.2a7.5511,7.5511,0,0,1-1.4,1.1,24.394,24.394,0,0,1-6.5,3.7,22.5944,22.5944,0,0,1-3.7,1.1,23.7581,23.7581,0,0,1-3.7.6,20.4451,20.4451,0,0,1-3.5,0,26.0714,26.0714,0,0,1-3.1-.4,16.6532,16.6532,0,0,1-2.6-.6c-0.8-.2-1.4-0.5-2-0.6-1-.4-1.6-0.6-1.6-0.6l2.7-.9h0ZM27.3,85l-1.9.5A26.3322,26.3322,0,0,1,51.7,59.2,26.8576,26.8576,0,0,1,61,60.9l-1.2,1.6A24.3643,24.3643,0,0,0,27.3,85C27.3,85.2,27.3,84.8,27.3,85Zm5.2,18.6v-3a11.7957,11.7957,0,0,1-1.3-1.8H29a32.7221,32.7221,0,0,0,3.5,4.8" transform="translate(-25.4 -58.56)" fill="#ca3d3d"/><path d="M76.3,67.5c0.4-3.1-.7-5.7-2.4-8.2-0.2-.3-0.4-0.9-1-0.7a1.95,1.95,0,0,0,.1,1.3c0.3,2.2.9,4.2,0.2,6.5-1.6,4.9-7.1,6.6-14.1,4.9-11.7-2.7-21.5.7-22.2,1.4,0,0,12.3-3.3,20.9,3,3,2.2,5.9,4.9,6.3,8.6,1,8.2-3.7,14.4-9,20.4a1.4255,1.4255,0,0,0-.6,1.2,0.9183,0.9183,0,0,0,.6.1,15.5566,15.5566,0,0,0,5-3.3A37.2469,37.2469,0,0,0,65.9,96a18.3128,18.3128,0,0,0,3.2-10.1c0-.5-0.1-1.6.4-1.7a18.8759,18.8759,0,0,1,1.9,11.4,25.4,25.4,0,0,0,3.4-6.5c1.6-4.6,1.4-8.9-1.3-13a0.972,0.972,0,0,1,.1-1.4A17.06,17.06,0,0,0,76.3,67.5Z" transform="translate(-25.4 -58.56)" fill="#699fa5"/><path d="M67.7,63.1c-1.8-2.4-4.6-1.9-5.7.4-1.1,2.5,1,6.9,4.3,6.3C68.9,69.1,69.3,65.1,67.7,63.1Z" transform="translate(-25.4 -58.56)" fill="#699fa5"/><path d="M35,72.2a19,19,0,0,1,7.8-6.3c3.4-1.4,6.8-2.5,10.5-2.2a21.6386,21.6386,0,0,1,6.6,1.4,1.3248,1.3248,0,0,1,.9,1.3c0.2,1.7,1.4,2.7,2.5,3.8a0.823,0.823,0,0,1-.9.2c-11.7-2.3-20.3-1.9-26.6,1.9C35.3,72.6,35.1,72.8,35,72.2Z" transform="translate(-25.4 -58.56)" fill="#aac8d0"/><g style="isolation:isolate"><path d="M91.8955,74.1815a0.0432,0.0432,0,0,1,.0488.0488v0.2588a0.0432,0.0432,0,0,1-.0488.0488l-0.85.083a0.0432,0.0432,0,0,0-.0488.0488v2.51a0.04,0.04,0,0,0,.0391.0488,1.9843,1.9843,0,0,0,.564-0.0732,1.445,1.445,0,0,0,.4468-0.22,1.5864,1.5864,0,0,0,.354-0.3613,3.8372,3.8372,0,0,0,.2954-0.4932L93.1846,75.07a3.663,3.663,0,0,1,.2856-0.4785,1.5944,1.5944,0,0,1,.3-0.3242,1.0719,1.0719,0,0,1,.32-0.1816,1.06,1.06,0,0,1,.3442-0.0557,1.1012,1.1012,0,0,1,.1636.0146,1.05,1.05,0,0,1,.19.0488,0.9428,0.9428,0,0,1,.1807.0859,0.7008,0.7008,0,0,1,.144.1094,0.1381,0.1381,0,0,1,.022.0469,0.0318,0.0318,0,0,1-.0122.0459l-0.4883.6689a0.1134,0.1134,0,0,1-.0391.0391,0.04,0.04,0,0,1-.0391,0,1.063,1.063,0,0,0-.1978-0.1641,0.4027,0.4027,0,0,0-.2124-0.0654,0.5677,0.5677,0,0,0-.3223.12,1.0044,1.0044,0,0,0-.3076.4414l-0.249.5371c-0.0747.1533-.1553,0.3047-0.2417,0.457a3.5254,3.5254,0,0,1-.2759.4141,2.6023,2.6023,0,0,1-.2954.3252,1.018,1.018,0,0,1-.2905.1953A2.4253,2.4253,0,0,1,92.55,77.5a1.571,1.571,0,0,1,.3613.2461,2.4959,2.4959,0,0,1,.3394.376,4.7549,4.7549,0,0,1,.3345.5273l0.9326,1.7822a0.0839,0.0839,0,0,0,.0684.0391l0.7275,0.0781a0.0474,0.0474,0,0,1,.0537.0537v0.2588a0.0456,0.0456,0,0,1-.0537.0488H93.7461a0.0972,0.0972,0,0,1-.0732-0.0391l-0.9082-1.9287a3.2384,3.2384,0,0,0-.43-0.7031,1.949,1.949,0,0,0-.4395-0.3975,1.2608,1.2608,0,0,0-.4346-0.1816,2.2125,2.2125,0,0,0-.415-0.041,0.0432,0.0432,0,0,0-.0488.0488v2.7539a0.0432,0.0432,0,0,0,.0488.0488l0.85,0.0781a0.0452,0.0452,0,0,1,.0488.0537v0.2588a0.0432,0.0432,0,0,1-.0488.0488h-2.69a0.0432,0.0432,0,0,1-.0488-0.0488V80.6024a0.0452,0.0452,0,0,1,.0488-0.0537l0.85-.0781a0.0432,0.0432,0,0,0,.0488-0.0488V74.67a0.0432,0.0432,0,0,0-.0488-0.0488l-0.85-.083a0.0432,0.0432,0,0,1-.0488-0.0488V74.23a0.0432,0.0432,0,0,1,.0488-0.0488h2.69Z" transform="translate(-25.4 -58.56)" fill="#699fa5"/><path d="M98.5557,74.1815a0.0432,0.0432,0,0,1,.0488.0488v0.2588a0.0432,0.0432,0,0,1-.0488.0488l-0.8008.083a0.0432,0.0432,0,0,0-.0488.0488v4.4727l3.3154-4.0527a0.06,0.06,0,0,0,.0244-0.0488V74.67a0.0456,0.0456,0,0,0-.0537-0.0488l-0.8008-.083a0.0432,0.0432,0,0,1-.0488-0.0488V74.23a0.0432,0.0432,0,0,1,.0488-0.0488h2.6221a0.0432,0.0432,0,0,1,.0488.0488v0.2588a0.0432,0.0432,0,0,1-.0488.0488l-0.85.083a0.0432,0.0432,0,0,0-.0488.0488v5.752a0.0432,0.0432,0,0,0,.0488.0488l0.85,0.0781a0.0452,0.0452,0,0,1,.0488.0537v0.2588a0.0432,0.0432,0,0,1-.0488.0488h-2.6221a0.0432,0.0432,0,0,1-.0488-0.0488V80.6024a0.0452,0.0452,0,0,1,.0488-0.0537l0.8008-.0781a0.0456,0.0456,0,0,0,.0537-0.0488v-4.6l-3.32,4.0479a0.0651,0.0651,0,0,0-.02.0488v0.5029a0.0432,0.0432,0,0,0,.0488.0488l0.8008,0.0781a0.0452,0.0452,0,0,1,.0488.0537v0.2588a0.0432,0.0432,0,0,1-.0488.0488H95.9336a0.0432,0.0432,0,0,1-.0488-0.0488V80.6024a0.0452,0.0452,0,0,1,.0488-0.0537l0.85-.0781a0.0432,0.0432,0,0,0,.0488-0.0488V74.67a0.0432,0.0432,0,0,0-.0488-0.0488l-0.85-.083a0.0432,0.0432,0,0,1-.0488-0.0488V74.23a0.0432,0.0432,0,0,1,.0488-0.0488h2.6221Z" transform="translate(-25.4 -58.56)" fill="#699fa5"/><path d="M108.4336,74.1815a0.0432,0.0432,0,0,1,.0488.0488v1.5674a0.0452,0.0452,0,0,1-.0488.0537h-0.3711a0.0392,0.0392,0,0,1-.0488-0.0391l-0.2-1.1328a0.0392,0.0392,0,0,0-.0488-0.0391h-2.29a0.0432,0.0432,0,0,0-.0488.0488V77.16a0.0432,0.0432,0,0,0,.0488.0488h1.377c0.0356,0,.0537-0.0127.0537-0.0391l0.0977-.8105a0.0392,0.0392,0,0,1,.0488-0.0391h0.2734a0.0432,0.0432,0,0,1,.0488.0488v2.1729a0.0432,0.0432,0,0,1-.0488.0488h-0.2734a0.0392,0.0392,0,0,1-.0488-0.0391l-0.0977-.8594a0.0438,0.0438,0,0,0-.0537-0.0439h-1.377a0.0452,0.0452,0,0,0-.0488.0537v2.7a0.0432,0.0432,0,0,0,.0488.0488h2.4268c0.0356,0,.0537-0.0127.0537-0.0391l0.2-1.1133a0.0392,0.0392,0,0,1,.0488-0.0391h0.3711a0.0432,0.0432,0,0,1,.0488.0488v1.5527a0.0432,0.0432,0,0,1-.0488.0488h-4.9219a0.0432,0.0432,0,0,1-.0488-0.0488V80.6024a0.0452,0.0452,0,0,1,.0488-0.0537l0.85-.0781a0.0432,0.0432,0,0,0,.0488-0.0488V74.65a0.0576,0.0576,0,0,0-.0488-0.0293l-0.85-.083a0.0432,0.0432,0,0,1-.0488-0.0488V74.23a0.0432,0.0432,0,0,1,.0488-0.0488h4.78Z" transform="translate(-25.4 -58.56)" fill="#699fa5"/><path d="M111.8223,74.1815a3.9747,3.9747,0,0,1,1.7529.2783,1.3476,1.3476,0,0,1,.5273.4639,1.4875,1.4875,0,0,1,.21.7959,1.5474,1.5474,0,0,1-1.2207,1.4893,2.2274,2.2274,0,0,1,1.1523.6152,1.63,1.63,0,0,1,.498,1.1865,1.784,1.784,0,0,1-.3174,1.0205,2.69,2.69,0,0,1-2.373.8789h-2.5586a0.0432,0.0432,0,0,1-.0488-0.0488V80.6024a0.0452,0.0452,0,0,1,.0488-0.0537l0.85-.0781a0.0432,0.0432,0,0,0,.0488-0.0488V74.67a0.0432,0.0432,0,0,0-.0488-0.0488l-0.85-.083a0.0432,0.0432,0,0,1-.0488-0.0488V74.23a0.0432,0.0432,0,0,1,.0488-0.0488h2.3291Zm-0.5566,2.8906a0.0432,0.0432,0,0,0,.0488.0488h0.3076a2.4333,2.4333,0,0,0,1.23-.249,1.1274,1.1274,0,0,0,.5518-1.04,1.0363,1.0363,0,0,0-.3955-0.8838,1.6092,1.6092,0,0,0-.9326-0.293l-0.3809-.0146h-0.3809a0.0432,0.0432,0,0,0-.0488.0488v2.3828Zm0,3.33a0.0432,0.0432,0,0,0,.0488.0488h0.63q1.7966,0,1.7969-1.3525,0-1.5967-1.9873-1.5967h-0.4395a0.0432,0.0432,0,0,0-.0488.0488v2.8516Z" transform="translate(-25.4 -58.56)" fill="#699fa5"/><path d="M119.2832,74.03a3.8281,3.8281,0,0,1,.41.0244c0.1528,0.0166.3076,0.0371,0.4639,0.0605,0.1563,0.0254.31,0.0518,0.4614,0.0811s0.2822,0.0537.3931,0.0732a0.0523,0.0523,0,0,1,.0537.0488v1.5137a0.0456,0.0456,0,0,1-.0537.0488H120.626a0.0672,0.0672,0,0,1-.0391-0.01,0.0336,0.0336,0,0,1-.0146-0.0293l-0.2-1.123a0.0571,0.0571,0,0,0-.0391-0.0488c-0.0586-.0127-0.1333-0.0312-0.2246-0.0537s-0.1846-.0449-0.2808-0.0654-0.1953-.0391-0.2979-0.0518a2.4116,2.4116,0,0,0-.2954-0.02,3.2229,3.2229,0,0,0-1.189.2051,2.4,2.4,0,0,0-.8765.5811,2.5019,2.5019,0,0,0-.542.9,3.4538,3.4538,0,0,0-.1855,1.1553,3.9508,3.9508,0,0,0,.1953,1.25,3.3026,3.3026,0,0,0,.5566,1.04,2.6353,2.6353,0,0,0,.8716.708,2.4586,2.4586,0,0,0,1.13.2588c0.0718,0,.16-0.0029.2637-0.01s0.2075-.0166.31-0.0293,0.2041-.0293.3052-0.0488a0.8941,0.8941,0,0,0,.2588-0.0879,0.068,0.068,0,0,0,.0391-0.0537l0.2-1.1279a0.0392,0.0392,0,0,1,.0146-0.0244,0.053,0.053,0,0,1,.0391-0.0146h0.3857a0.0456,0.0456,0,0,1,.0537.0488v1.5088a0.0634,0.0634,0,0,1-.0537.0488q-0.1663.0439-.3662,0.0879c-0.1333.0293-.2793,0.0566-0.437,0.083s-0.3281.0479-.51,0.0664-0.3843.0264-.6055,0.0264a4.2307,4.2307,0,0,1-1.0278-.12,3.5691,3.5691,0,0,1-.8862-0.3457,3.2846,3.2846,0,0,1-.72-0.543,3.17,3.17,0,0,1-.53-0.6973,3.5659,3.5659,0,0,1-.3345-0.84,3.8777,3.8777,0,0,1,.02-1.9854,3.2763,3.2763,0,0,1,.3955-0.874,3.197,3.197,0,0,1,.6055-0.6953,3.5628,3.5628,0,0,1,.769-0.5059,3.9789,3.9789,0,0,1,.9058-0.3105A4.7338,4.7338,0,0,1,119.2832,74.03Z" transform="translate(-25.4 -58.56)" fill="#699fa5"/><path d="M124.6738,74.1815a0.0432,0.0432,0,0,1,.0488.0488v0.2588a0.0432,0.0432,0,0,1-.0488.0488l-0.85.083a0.0432,0.0432,0,0,0-.0488.0488v2.51a0.04,0.04,0,0,0,.0391.0488,1.9843,1.9843,0,0,0,.564-0.0732,1.445,1.445,0,0,0,.4468-0.22,1.5864,1.5864,0,0,0,.354-0.3613,3.8372,3.8372,0,0,0,.2954-0.4932l0.4883-1.0107a3.663,3.663,0,0,1,.2856-0.4785,1.5944,1.5944,0,0,1,.3-0.3242,1.0719,1.0719,0,0,1,.32-0.1816,1.06,1.06,0,0,1,.3442-0.0557,1.1012,1.1012,0,0,1,.1636.0146,1.05,1.05,0,0,1,.19.0488,0.9428,0.9428,0,0,1,.1807.0859,0.7008,0.7008,0,0,1,.144.1094,0.1381,0.1381,0,0,1,.022.0469,0.0318,0.0318,0,0,1-.0122.0459l-0.4883.6689a0.1134,0.1134,0,0,1-.0391.0391,0.04,0.04,0,0,1-.0391,0,1.063,1.063,0,0,0-.1978-0.1641,0.4027,0.4027,0,0,0-.2124-0.0654,0.5677,0.5677,0,0,0-.3223.12,1.0044,1.0044,0,0,0-.3076.4414l-0.249.5371c-0.0747.1533-.1553,0.3047-0.2417,0.457a3.5254,3.5254,0,0,1-.2759.4141,2.6023,2.6023,0,0,1-.2954.3252,1.018,1.018,0,0,1-.2905.1953,2.4254,2.4254,0,0,1,.3857.1494,1.571,1.571,0,0,1,.3613.2461,2.4959,2.4959,0,0,1,.3394.376,4.7549,4.7549,0,0,1,.3345.5273l0.9326,1.7822a0.0839,0.0839,0,0,0,.0684.0391l0.7275,0.0781a0.0474,0.0474,0,0,1,.0537.0537v0.2588a0.0456,0.0456,0,0,1-.0537.0488h-1.5674a0.0972,0.0972,0,0,1-.0732-0.0391l-0.9082-1.9287a3.2384,3.2384,0,0,0-.43-0.7031,1.949,1.949,0,0,0-.4395-0.3975,1.2608,1.2608,0,0,0-.4346-0.1816,2.2125,2.2125,0,0,0-.415-0.041,0.0432,0.0432,0,0,0-.0488.0488v2.7539a0.0432,0.0432,0,0,0,.0488.0488l0.85,0.0781a0.0452,0.0452,0,0,1,.0488.0537v0.2588a0.0432,0.0432,0,0,1-.0488.0488h-2.69a0.0432,0.0432,0,0,1-.0488-0.0488V80.6024a0.0452,0.0452,0,0,1,.0488-0.0537l0.85-.0781a0.0432,0.0432,0,0,0,.0488-0.0488V74.67a0.0432,0.0432,0,0,0-.0488-0.0488l-0.85-.083a0.0432,0.0432,0,0,1-.0488-0.0488V74.23a0.0432,0.0432,0,0,1,.0488-0.0488h2.69Z" transform="translate(-25.4 -58.56)" fill="#699fa5"/><path d="M132.6719,80.91a0.0432,0.0432,0,0,1-.0488-0.0488V80.6024a0.0452,0.0452,0,0,1,.0488-0.0537l0.7813-.0781a0.04,0.04,0,0,0,.0391-0.02,0.0643,0.0643,0,0,0,0-.0488L132.75,78.4393a0.0523,0.0523,0,0,0-.0391-0.0293h-2.1777a0.0565,0.0565,0,0,0-.0391.0293l-0.791,1.9824c-0.0161.042,0,.0654,0.0488,0.0684l0.752,0.0586a0.0482,0.0482,0,0,1,.0488.0537v0.2588a0.0432,0.0432,0,0,1-.0488.0488h-2.1631a0.0432,0.0432,0,0,1-.0488-0.0488V80.6024a0.0452,0.0452,0,0,1,.0488-0.0537l0.82-.0781a0.0565,0.0565,0,0,0,.0391-0.0293l2.5439-6.4014a0.0523,0.0523,0,0,1,.0391-0.0293h0.249a0.0565,0.0565,0,0,1,.0391.0293l2.3389,6.3916a0.0412,0.0412,0,0,0,.0439.0293l0.7959,0.0879a0.0436,0.0436,0,0,1,.0439.0537v0.2588a0.0456,0.0456,0,0,1-.0537.0488h-2.5684ZM131.7,75.5292a0.0523,0.0523,0,0,0-.0391-0.0293,0.0382,0.0382,0,0,0-.0391.0293L130.68,77.9217c-0.02.0459-.0049,0.0684,0.0439,0.0684H132.53c0.0522,0,.07-0.0225.0537-0.0684Z" transform="translate(-25.4 -58.56)" fill="#699fa5"/><path d="M141.5439,74.1815a0.0432,0.0432,0,0,1,.0488.0488v0.2588a0.0432,0.0432,0,0,1-.0488.0488l-0.8545.083a0.0432,0.0432,0,0,0-.0488.0488v5.752a0.0432,0.0432,0,0,0,.0488.0488l0.8545,0.0781a0.0452,0.0452,0,0,1,.0488.0537v0.2588a0.0432,0.0432,0,0,1-.0488.0488h-2.793a0.0432,0.0432,0,0,1-.0488-0.0488V80.6024a0.0452,0.0452,0,0,1,.0488-0.0537l0.9521-.0781a0.0432,0.0432,0,0,0,.0488-0.0488V77.8094a0.0336,0.0336,0,0,0-.0146-0.0293,0.0574,0.0574,0,0,0-.0342-0.01H139.542a1.89,1.89,0,0,0-.4346.0488,1.1172,1.1172,0,0,0-.4.19,1.8762,1.8762,0,0,0-.3857.3955,3.7379,3.7379,0,0,0-.3809.6641l-0.8594,1.8018a0.07,0.07,0,0,1-.0684.0391H135.44a0.0432,0.0432,0,0,1-.0488-0.0488V80.6024a0.0452,0.0452,0,0,1,.0488-0.0537l0.7324-.0781a0.07,0.07,0,0,0,.0684-0.0391l0.8789-1.65q0.1121-.2007.2222-0.3809a2.2416,2.2416,0,0,1,.2344-0.32,1.4832,1.4832,0,0,1,.2905-0.248,1.6414,1.6414,0,0,1,.376-0.1836,2.943,2.943,0,0,1-.7251-0.2168,1.8437,1.8437,0,0,1-.5518-0.3809,1.74,1.74,0,0,1-.3516-0.5156A1.5094,1.5094,0,0,1,136.49,75.92a1.5936,1.5936,0,0,1,.7031-1.3379,1.8921,1.8921,0,0,1,.8325-0.3223,7.3994,7.3994,0,0,1,1.1353-.0781h2.3828Zm-4.0527,1.748a1.29,1.29,0,0,0,.1563.6523,1.3316,1.3316,0,0,0,.4053.4395,1.9143,1.9143,0,0,0,.564.2539,2.4739,2.4739,0,0,0,.647.085h0.4492a0.04,0.04,0,0,0,.0391-0.0488V74.6893a0.0432,0.0432,0,0,0-.0488-0.0488h-0.3613a5.501,5.501,0,0,0-.7153.0439,1.65,1.65,0,0,0-.5908.1855,1.03,1.03,0,0,0-.4.3906A1.331,1.331,0,0,0,137.4912,75.93Z" transform="translate(-25.4 -58.56)" fill="#699fa5"/><path d="M148.2822,74.03a3.195,3.195,0,0,1,2.4463.9961,3.496,3.496,0,0,1,.9131,2.4951,3.5448,3.5448,0,0,1-.918,2.5049,3.1637,3.1637,0,0,1-2.4414,1.0254,3.3013,3.3013,0,0,1-2.4707-.9912,3.4352,3.4352,0,0,1-.9668-2.5,3.5,3.5,0,0,1,.9521-2.52A3.2971,3.2971,0,0,1,148.2822,74.03Zm-0.1172.4492a2.0833,2.0833,0,0,0-1.7725.8838,3.2318,3.2318,0,0,0-.5811,1.958,4.1528,4.1528,0,0,0,.2832,1.5479,2.9294,2.9294,0,0,0,.9277,1.2617,2.2143,2.2143,0,0,0,1.3916.4717,1.9713,1.9713,0,0,0,1.7383-.9082,3.4925,3.4925,0,0,0,.5225-1.9727,3.7708,3.7708,0,0,0-.6592-2.251A2.1759,2.1759,0,0,0,148.165,74.4794Z" transform="translate(-25.4 -58.56)" fill="#699fa5"/><path d="M157.1641,74.1815a0.0434,0.0434,0,0,1,.0488.0488v1.5674a0.0454,0.0454,0,0,1-.0488.0537H156.793a0.0671,0.0671,0,0,1-.0293-0.01,0.0309,0.0309,0,0,1-.02-0.0293l-0.2-1.1328a0.0336,0.0336,0,0,0-.0146-0.0293,0.0683,0.0683,0,0,0-.0391-0.01h-2.2266a0.043,0.043,0,0,0-.0488.0488V76.95a0.043,0.043,0,0,0,.0488.0488h0.4883q0.3706,0,.69.01a3.3821,3.3821,0,0,1,.6055.0713,2.4879,2.4879,0,0,1,.54.18,2.3528,2.3528,0,0,1,.5029.33,1.5535,1.5535,0,0,1,.4463.5908,1.7965,1.7965,0,0,1,.1543.7275,2.0188,2.0188,0,0,1-.02.2715c-0.0137.0918-.0332,0.1895-0.0586,0.29a1.767,1.767,0,0,1-.1006.2861,2.0155,2.0155,0,0,1-.1387.2559,1.6585,1.6585,0,0,1-.3369.3535,1.9564,1.9564,0,0,1-.5059.2832,3.6114,3.6114,0,0,1-.7.1914,5.4226,5.4226,0,0,1-.9277.07h-2.4609a0.043,0.043,0,0,1-.0488-0.0488V80.6024a0.0451,0.0451,0,0,1,.0488-0.0537l0.85-.0781a0.0434,0.0434,0,0,0,.0488-0.0488V74.67a0.0434,0.0434,0,0,0-.0488-0.0488l-0.85-.083a0.043,0.043,0,0,1-.0488-0.0488V74.23a0.043,0.043,0,0,1,.0488-0.0488h4.7217Zm-2.9,6.27h0.61a2.9273,2.9273,0,0,0,.8174-0.1,1.49,1.49,0,0,0,.56-0.291,1.1608,1.1608,0,0,0,.3242-0.4492,1.6845,1.6845,0,0,0-.0488-1.291,1.3043,1.3043,0,0,0-.43-0.4912,1.913,1.913,0,0,0-.64-0.28,3.2263,3.2263,0,0,0-.7832-0.0908h-0.41a0.0451,0.0451,0,0,0-.0488.0537v2.8906A0.043,0.043,0,0,0,154.2637,80.451Z" transform="translate(-25.4 -58.56)" fill="#699fa5"/><path d="M164.7227,74.1815a0.0434,0.0434,0,0,1,.0488.0488v0.2588a0.0434,0.0434,0,0,1-.0488.0488l-0.85.083a0.043,0.043,0,0,0-.0488.0488v5.752a0.043,0.043,0,0,0,.0488.0488l0.85,0.0781a0.0454,0.0454,0,0,1,.0488.0537v0.2588a0.0434,0.0434,0,0,1-.0488.0488h-2.6221a0.043,0.043,0,0,1-.0488-0.0488V80.6024a0.0451,0.0451,0,0,1,.0488-0.0537l0.8008-.0781a0.0458,0.0458,0,0,0,.0537-0.0488V74.67a0.0458,0.0458,0,0,0-.0537-0.0488h-1.5479c-0.02,0-.0293.0166-0.0293,0.0488q-0.0293.6489-.0713,1.3164c-0.0273.4434-.0664,0.8779-0.1172,1.3008s-0.1133.8291-.19,1.2188a7.143,7.143,0,0,1-.29,1.0664,2.9578,2.9578,0,0,1-.6572,1.1084,1.236,1.236,0,0,1-.8857.3711c-0.0654,0-.1348-0.0029-0.208-0.01a0.9755,0.9755,0,0,1-.2314-0.0518,1.2079,1.2079,0,0,1-.2373-0.1094,1.3134,1.3134,0,0,1-.2314-0.1807,0.1608,0.1608,0,0,1-.0244-0.0391,0.073,0.073,0,0,1,.0146-0.0732l0.5176-.708a0.0545,0.0545,0,0,1,.0605-0.0293,0.1116,0.1116,0,0,1,.042.02,0.8248,0.8248,0,0,0,.2637.1953,0.5951,0.5951,0,0,0,.2344.0537,0.8981,0.8981,0,0,0,.19-0.02,0.52,0.52,0,0,0,.1777-0.08,0.8673,0.8673,0,0,0,.1758-0.1621,1.5369,1.5369,0,0,0,.1689-0.2461,3.6007,3.6007,0,0,0,.2314-0.6006q0.1055-.3516.19-0.7666t0.1465-.8643q0.0615-.45.1055-0.9209t0.0586-.9248q0.0146-.4541.0244-0.8643a0.0837,0.0837,0,0,0-.01-0.0293,0.04,0.04,0,0,0-.0391-0.02l-0.9521-.083a0.043,0.043,0,0,1-.0488-0.0488V74.23a0.043,0.043,0,0,1,.0488-0.0488h4.9414Z" transform="translate(-25.4 -58.56)" fill="#699fa5"/><path d="M169.5225,80.91a0.043,0.043,0,0,1-.0488-0.0488V80.6024a0.0451,0.0451,0,0,1,.0488-0.0537l0.7813-.0781a0.04,0.04,0,0,0,.0391-0.02,0.0693,0.0693,0,0,0,0-.0488l-0.7422-1.9629a0.0539,0.0539,0,0,0-.0391-0.0293h-2.1777a0.0556,0.0556,0,0,0-.0391.0293l-0.791,1.9824c-0.0166.042,0,.0654,0.0488,0.0684l0.752,0.0586a0.0485,0.0485,0,0,1,.0488.0537v0.2588a0.0434,0.0434,0,0,1-.0488.0488h-2.1631a0.043,0.043,0,0,1-.0488-0.0488V80.6024a0.0451,0.0451,0,0,1,.0488-0.0537l0.82-.0781a0.0576,0.0576,0,0,0,.0391-0.0293l2.5439-6.4014a0.0508,0.0508,0,0,1,.0391-0.0293h0.249a0.0576,0.0576,0,0,1,.0391.0293l2.3389,6.3916a0.0406,0.0406,0,0,0,.0439.0293l0.7959,0.0879a0.0436,0.0436,0,0,1,.0439.0537v0.2588a0.0458,0.0458,0,0,1-.0537.0488h-2.5684Zm-0.9717-5.3809a0.0539,0.0539,0,0,0-.0391-0.0293,0.0378,0.0378,0,0,0-.0391.0293L167.53,77.9217c-0.02.0459-.0049,0.0684,0.0439,0.0684h1.8066c0.0518,0,.0693-0.0225.0537-0.0684Z" transform="translate(-25.4 -58.56)" fill="#699fa5"/><path d="M176.4316,74.03a3.8424,3.8424,0,0,1,.41.0244c0.1523,0.0166.3076,0.0371,0.4639,0.0605,0.1563,0.0254.31,0.0518,0.4609,0.0811s0.2822,0.0537.3936,0.0732a0.0526,0.0526,0,0,1,.0537.0488v1.5137a0.0458,0.0458,0,0,1-.0537.0488h-0.3857a0.0662,0.0662,0,0,1-.0391-0.01,0.0336,0.0336,0,0,1-.0146-0.0293l-0.2-1.123a0.0579,0.0579,0,0,0-.0391-0.0488c-0.0586-.0127-0.1338-0.0312-0.2246-0.0537s-0.1846-.0449-0.2812-0.0654-0.1953-.0391-0.2979-0.0518a2.41,2.41,0,0,0-.2949-0.02,3.2237,3.2237,0,0,0-1.1895.2051,2.3942,2.3942,0,0,0-.876.5811,2.4883,2.4883,0,0,0-.542.9,3.4415,3.4415,0,0,0-.1855,1.1553,3.937,3.937,0,0,0,.1953,1.25,3.283,3.283,0,0,0,.5566,1.04,2.6336,2.6336,0,0,0,.8711.708,2.4607,2.4607,0,0,0,1.1309.2588c0.0713,0,.1592-0.0029.2637-0.01s0.207-.0166.31-0.0293,0.2041-.0293.3057-0.0488a0.9044,0.9044,0,0,0,.2588-0.0879,0.0691,0.0691,0,0,0,.0391-0.0537l0.2-1.1279a0.0392,0.0392,0,0,1,.0146-0.0244,0.0523,0.0523,0,0,1,.0391-0.0146H178.16a0.0458,0.0458,0,0,1,.0537.0488v1.5088a0.0641,0.0641,0,0,1-.0537.0488q-0.167.0439-.3662,0.0879c-0.1338.0293-.2793,0.0566-0.4375,0.083s-0.3281.0479-.51,0.0664-0.3848.0264-.6055,0.0264a4.2348,4.2348,0,0,1-1.0283-.12,3.5655,3.5655,0,0,1-.8857-0.3457,3.2761,3.2761,0,0,1-.7207-0.543,3.1525,3.1525,0,0,1-.5293-0.6973,3.5669,3.5669,0,0,1-.335-0.84,3.8919,3.8919,0,0,1,.02-1.9854,3.2763,3.2763,0,0,1,.3955-0.874,3.21,3.21,0,0,1,.6055-0.6953,3.566,3.566,0,0,1,.77-0.5059,3.9749,3.9749,0,0,1,.9053-0.3105A4.7384,4.7384,0,0,1,176.4316,74.03Z" transform="translate(-25.4 -58.56)" fill="#699fa5"/><path d="M184.4932,74.1815a0.0434,0.0434,0,0,1,.0488.0488v1.5674a0.0454,0.0454,0,0,1-.0488.0537h-0.3711a0.039,0.039,0,0,1-.0488-0.0391l-0.2-1.1328a0.0394,0.0394,0,0,0-.0488-0.0391h-1.6211a0.0394,0.0394,0,0,0-.0391.0488v5.7324a0.0456,0.0456,0,0,0,.0488.0488l0.9473,0.0781a0.0507,0.0507,0,0,1,.0537.0537v0.2588a0.0458,0.0458,0,0,1-.0537.0488h-2.8662a0.0454,0.0454,0,0,1-.0537-0.0488V80.6024a0.05,0.05,0,0,1,.0537-0.0537l0.9473-.0781a0.0461,0.0461,0,0,0,.0488-0.0488V74.6893a0.04,0.04,0,0,0-.0391-0.0488H179.63a0.039,0.039,0,0,0-.0488.0391l-0.2,1.1328a0.0394,0.0394,0,0,1-.0488.0391h-0.3711a0.0451,0.0451,0,0,1-.0488-0.0537V74.23a0.043,0.043,0,0,1,.0488-0.0488h5.5322Z" transform="translate(-25.4 -58.56)" fill="#699fa5"/><path d="M185.1133,74.23a0.043,0.043,0,0,1,.0488-0.0488h2.6221a0.0434,0.0434,0,0,1,.0488.0488v0.2588a0.0434,0.0434,0,0,1-.0488.0488l-0.8008.083a0.043,0.043,0,0,0-.0488.0488v2.4219q0,0.0293.0146,0.0293h3.2129a0.044,0.044,0,0,0,.01-0.0293V74.67a0.0434,0.0434,0,0,0-.0488-0.0488l-0.8008-.083a0.043,0.043,0,0,1-.0488-0.0488V74.23a0.043,0.043,0,0,1,.0488-0.0488h2.6221a0.0434,0.0434,0,0,1,.0488.0488v0.2588a0.0434,0.0434,0,0,1-.0488.0488l-0.8545.083a0.043,0.043,0,0,0-.0488.0488v5.752a0.043,0.043,0,0,0,.0488.0488l0.8545,0.0781a0.0454,0.0454,0,0,1,.0488.0537v0.2588a0.0434,0.0434,0,0,1-.0488.0488h-2.6221a0.043,0.043,0,0,1-.0488-0.0488V80.6024a0.0451,0.0451,0,0,1,.0488-0.0537l0.8008-.0781a0.0434,0.0434,0,0,0,.0488-0.0488v-2.793a0.0434,0.0434,0,0,0-.0488-0.0488h-3.14a0.043,0.043,0,0,0-.0488.0488v2.793a0.043,0.043,0,0,0,.0488.0488l0.8008,0.0781a0.0454,0.0454,0,0,1,.0488.0537v0.2588a0.0434,0.0434,0,0,1-.0488.0488h-2.6221a0.043,0.043,0,0,1-.0488-0.0488V80.6024a0.0451,0.0451,0,0,1,.0488-0.0537l0.85-.0781a0.0434,0.0434,0,0,0,.0488-0.0488V74.67a0.0434,0.0434,0,0,0-.0488-0.0488l-0.85-.083a0.043,0.043,0,0,1-.0488-0.0488V74.23Z" transform="translate(-25.4 -58.56)" fill="#699fa5"/><path d="M196.7441,80.91a0.043,0.043,0,0,1-.0488-0.0488V80.6024a0.0451,0.0451,0,0,1,.0488-0.0537l0.7813-.0781a0.04,0.04,0,0,0,.0391-0.02,0.0693,0.0693,0,0,0,0-.0488l-0.7422-1.9629a0.0539,0.0539,0,0,0-.0391-0.0293h-2.1777a0.0556,0.0556,0,0,0-.0391.0293l-0.791,1.9824c-0.0166.042,0,.0654,0.0488,0.0684l0.752,0.0586a0.0485,0.0485,0,0,1,.0488.0537v0.2588a0.0434,0.0434,0,0,1-.0488.0488h-2.1631a0.043,0.043,0,0,1-.0488-0.0488V80.6024a0.0451,0.0451,0,0,1,.0488-0.0537l0.82-.0781a0.0576,0.0576,0,0,0,.0391-0.0293l2.5439-6.4014a0.0508,0.0508,0,0,1,.0391-0.0293h0.249a0.0576,0.0576,0,0,1,.0391.0293l2.3389,6.3916a0.0406,0.0406,0,0,0,.0439.0293l0.7959,0.0879a0.0436,0.0436,0,0,1,.0439.0537v0.2588a0.0458,0.0458,0,0,1-.0537.0488h-2.5684Zm-0.9717-5.3809a0.0539,0.0539,0,0,0-.0391-0.0293,0.0378,0.0378,0,0,0-.0391.0293l-0.9424,2.3926c-0.02.0459-.0049,0.0684,0.0439,0.0684h1.8066c0.0518,0,.0693-0.0225.0537-0.0684Z" transform="translate(-25.4 -58.56)" fill="#699fa5"/><path d="M205.6162,74.1815a0.0434,0.0434,0,0,1,.0488.0488v0.2588a0.0434,0.0434,0,0,1-.0488.0488l-0.8545.083a0.043,0.043,0,0,0-.0488.0488v5.752a0.043,0.043,0,0,0,.0488.0488l0.8545,0.0781a0.0454,0.0454,0,0,1,.0488.0537v0.2588a0.0434,0.0434,0,0,1-.0488.0488h-2.793a0.043,0.043,0,0,1-.0488-0.0488V80.6024a0.0451,0.0451,0,0,1,.0488-0.0537l0.9521-.0781a0.0434,0.0434,0,0,0,.0488-0.0488V77.8094A0.0336,0.0336,0,0,0,203.81,77.78a0.0585,0.0585,0,0,0-.0342-0.01h-0.1611a1.887,1.887,0,0,0-.4346.0488,1.1133,1.1133,0,0,0-.4.19,1.8644,1.8644,0,0,0-.3857.3955,3.7379,3.7379,0,0,0-.3809.6641l-0.8594,1.8018a0.07,0.07,0,0,1-.0684.0391h-1.5723a0.043,0.043,0,0,1-.0488-0.0488V80.6024a0.0451,0.0451,0,0,1,.0488-0.0537l0.7324-.0781a0.07,0.07,0,0,0,.0684-0.0391l0.8789-1.65q0.1113-.2007.2217-0.3809a2.2416,2.2416,0,0,1,.2344-0.32,1.4723,1.4723,0,0,1,.291-0.248,1.6219,1.6219,0,0,1,.376-0.1836,2.9469,2.9469,0,0,1-.7256-0.2168,1.85,1.85,0,0,1-.5518-0.3809,1.74,1.74,0,0,1-.3516-0.5156,1.5091,1.5091,0,0,1-.124-0.6152,1.5936,1.5936,0,0,1,.7031-1.3379,1.8924,1.8924,0,0,1,.832-0.3223,7.4061,7.4061,0,0,1,1.1357-.0781h2.3828Zm-4.0527,1.748a1.2852,1.2852,0,0,0,.1563.6523,1.3265,1.3265,0,0,0,.4053.4395,1.9114,1.9114,0,0,0,.5635.2539,2.4749,2.4749,0,0,0,.6475.085h0.4492a0.04,0.04,0,0,0,.0391-0.0488V74.6893a0.0434,0.0434,0,0,0-.0488-0.0488h-0.3613a5.5142,5.5142,0,0,0-.7158.0439,1.6528,1.6528,0,0,0-.5908.1855,1.0333,1.0333,0,0,0-.4.3906A1.3365,1.3365,0,0,0,201.5635,75.93Z" transform="translate(-25.4 -58.56)" fill="#699fa5"/></g><g style="isolation:isolate"><g style="isolation:isolate"><path d="M92.69,84.3451a0.06,0.06,0,0,1,.0684.0684v0.3623a0.06,0.06,0,0,1-.0684.0684L91.501,84.96a0.06,0.06,0,0,0-.0684.0684v3.5137a0.055,0.055,0,0,0,.0547.0684,2.7742,2.7742,0,0,0,.79-0.1025,2.0316,2.0316,0,0,0,.6255-0.3076,2.2289,2.2289,0,0,0,.4956-0.5059,5.3628,5.3628,0,0,0,.4136-0.69l0.6836-1.415a5.1629,5.1629,0,0,1,.4-0.67,2.3031,2.3031,0,0,1,.42-0.4551,1.5087,1.5087,0,0,1,.4478-0.252,1.4671,1.4671,0,0,1,.4819-0.0791,1.5373,1.5373,0,0,1,.229.0205,1.408,1.408,0,0,1,.2666.0684,1.5176,1.5176,0,0,1,.2529.1191,1.0874,1.0874,0,0,1,.2017.1543,0.1849,0.1849,0,0,1,.0308.0645c0.0112,0.0352.0059,0.0566-.0171,0.0654l-0.6836.9365a0.152,0.152,0,0,1-.0547.0547,0.06,0.06,0,0,1-.0547,0,1.4,1.4,0,0,0-.2769-0.2285,0.5473,0.5473,0,0,0-.2974-0.0928,0.8,0.8,0,0,0-.4512.167,1.4142,1.4142,0,0,0-.4307.6191l-0.3486.752c-0.105.2139-.2178,0.4277-0.3384,0.6387a4.7951,4.7951,0,0,1-.3862.582,3.7687,3.7687,0,0,1-.4136.4541,1.4091,1.4091,0,0,1-.4067.2734,3.4673,3.4673,0,0,1,.54.208,2.274,2.274,0,0,1,.5059.3457,3.4772,3.4772,0,0,1,.4751.5264,6.6569,6.6569,0,0,1,.4683.7383l1.3057,2.4951a0.1189,0.1189,0,0,0,.0957.0547l1.0186,0.1094a0.0665,0.0665,0,0,1,.0752.0752v0.3623a0.0634,0.0634,0,0,1-.0752.0684H95.2813a0.1373,0.1373,0,0,1-.1025-0.0547l-1.2715-2.7a4.4807,4.4807,0,0,0-.6016-0.9844,2.8136,2.8136,0,0,0-.6152-0.5576,1.77,1.77,0,0,0-.6084-0.252,3.0376,3.0376,0,0,0-.5811-0.0586,0.06,0.06,0,0,0-.0684.0684v3.8555a0.06,0.06,0,0,0,.0684.0684L92.69,93.2591a0.0638,0.0638,0,0,1,.0684.0752v0.3623a0.06,0.06,0,0,1-.0684.0684H88.9238a0.06,0.06,0,0,1-.0684-0.0684V93.3343a0.0638,0.0638,0,0,1,.0684-0.0752l1.1895-.1094a0.06,0.06,0,0,0,.0684-0.0684V85.0287a0.06,0.06,0,0,0-.0684-0.0684l-1.1895-.1162a0.06,0.06,0,0,1-.0684-0.0684V84.4134a0.06,0.06,0,0,1,.0684-0.0684H92.69Z" transform="translate(-25.4 -58.56)" fill="#699fa5"/><path d="M107.1074,84.3451a0.06,0.06,0,0,1,.0684.0684v0.3623a0.06,0.06,0,0,1-.0684.0684l-1.1895.1162a0.06,0.06,0,0,0-.0684.0684v8.0527a0.06,0.06,0,0,0,.0684.0684l1.1895,0.1094a0.0638,0.0638,0,0,1,.0684.0752v0.3623a0.06,0.06,0,0,1-.0684.0684h-3.6709a0.06,0.06,0,0,1-.0684-0.0684V93.3343a0.0638,0.0638,0,0,1,.0684-0.0752l1.1211-.1094a0.0634,0.0634,0,0,0,.0752-0.0684V85.0287a0.0634,0.0634,0,0,0-.0752-0.0684h-2.167c-0.0273,0-.041.0225-0.041,0.0684q-0.041.91-.0991,1.8418-0.0579.9346-.1641,1.8223T101.82,90.3978a10.0244,10.0244,0,0,1-.4067,1.4941,4.14,4.14,0,0,1-.9194,1.5518,1.73,1.73,0,0,1-1.2407.52c-0.0913,0-.188-0.0049-0.2905-0.0137a1.4085,1.4085,0,0,1-.3247-0.0713,1.7863,1.7863,0,0,1-.3315-0.1543,1.8314,1.8314,0,0,1-.3247-0.2529,0.2182,0.2182,0,0,1-.0342-0.0547,0.1022,0.1022,0,0,1,.0205-0.1025l0.7246-.9912a0.0788,0.0788,0,0,1,.0854-0.041,0.1518,0.1518,0,0,1,.0581.0273,1.1611,1.1611,0,0,0,.3691.2734,0.8555,0.8555,0,0,0,.3281.0752A1.2084,1.2084,0,0,0,99.8,92.63a0.7289,0.7289,0,0,0,.25-0.1133,1.2372,1.2372,0,0,0,.2461-0.2246,2.2565,2.2565,0,0,0,.2358-0.3457,5.0383,5.0383,0,0,0,.3247-0.8408q0.1472-.4922.2666-1.0732t0.2051-1.21q0.0857-.6284.147-1.2881t0.082-1.2959q0.0205-.6357.0342-1.21a0.1053,0.1053,0,0,0-.0137-0.041,0.0547,0.0547,0,0,0-.0547-0.0273l-1.333-.1162a0.06,0.06,0,0,1-.0684-0.0684V84.4134a0.06,0.06,0,0,1,.0684-0.0684h6.918Z" transform="translate(-25.4 -58.56)" fill="#699fa5"/><path d="M111.9541,84.3451a0.06,0.06,0,0,1,.0684.0684v0.3623a0.06,0.06,0,0,1-.0684.0684l-1.1211.1162a0.06,0.06,0,0,0-.0684.0684V91.29l4.6416-5.6738a0.0842,0.0842,0,0,0,.0342-0.0684v-0.52a0.0634,0.0634,0,0,0-.0752-0.0684l-1.1211-.1162a0.06,0.06,0,0,1-.0684-0.0684V84.4134a0.06,0.06,0,0,1,.0684-0.0684h3.6709a0.06,0.06,0,0,1,.0684.0684v0.3623a0.06,0.06,0,0,1-.0684.0684l-1.1895.1162a0.06,0.06,0,0,0-.0684.0684v8.0527a0.06,0.06,0,0,0,.0684.0684l1.1895,0.1094a0.0638,0.0638,0,0,1,.0684.0752v0.3623a0.06,0.06,0,0,1-.0684.0684h-3.6709a0.06,0.06,0,0,1-.0684-0.0684V93.3343a0.0638,0.0638,0,0,1,.0684-0.0752l1.1211-.1094a0.0634,0.0634,0,0,0,.0752-0.0684V86.642l-4.6484,5.667a0.0939,0.0939,0,0,0-.0273.0684v0.7041a0.06,0.06,0,0,0,.0684.0684l1.1211,0.1094a0.0638,0.0638,0,0,1,.0684.0752v0.3623a0.06,0.06,0,0,1-.0684.0684h-3.6709a0.06,0.06,0,0,1-.0684-0.0684V93.3343a0.0638,0.0638,0,0,1,.0684-0.0752l1.1895-.1094a0.06,0.06,0,0,0,.0684-0.0684V85.0287a0.06,0.06,0,0,0-.0684-0.0684l-1.1895-.1162a0.06,0.06,0,0,1-.0684-0.0684V84.4134a0.06,0.06,0,0,1,.0684-0.0684h3.6709Z" transform="translate(-25.4 -58.56)" fill="#699fa5"/><path d="M119.0225,84.4134a0.06,0.06,0,0,1,.0684-0.0684h3.6709a0.06,0.06,0,0,1,.0684.0684v0.3623a0.06,0.06,0,0,1-.0684.0684l-1.1211.1162a0.06,0.06,0,0,0-.0684.0684v3.3906q0,0.041.0205,0.041h4.498a0.0541,0.0541,0,0,0,.0137-0.041V85.0287a0.06,0.06,0,0,0-.0684-0.0684l-1.1211-.1162a0.06,0.06,0,0,1-.0684-0.0684V84.4134a0.06,0.06,0,0,1,.0684-0.0684h3.6709a0.06,0.06,0,0,1,.0684.0684v0.3623a0.06,0.06,0,0,1-.0684.0684L127.39,84.96a0.06,0.06,0,0,0-.0684.0684v8.0527a0.06,0.06,0,0,0,.0684.0684l1.1963,0.1094a0.0638,0.0638,0,0,1,.0684.0752v0.3623a0.06,0.06,0,0,1-.0684.0684H124.915a0.06,0.06,0,0,1-.0684-0.0684V93.3343a0.0638,0.0638,0,0,1,.0684-0.0752l1.1211-.1094a0.06,0.06,0,0,0,.0684-0.0684v-3.91a0.06,0.06,0,0,0-.0684-0.0684h-4.3955a0.06,0.06,0,0,0-.0684.0684v3.91a0.06,0.06,0,0,0,.0684.0684l1.1211,0.1094a0.0638,0.0638,0,0,1,.0684.0752v0.3623a0.06,0.06,0,0,1-.0684.0684h-3.6709a0.06,0.06,0,0,1-.0684-0.0684V93.3343a0.0638,0.0638,0,0,1,.0684-0.0752L120.28,93.15a0.06,0.06,0,0,0,.0684-0.0684V85.0287A0.06,0.06,0,0,0,120.28,84.96l-1.1895-.1162a0.06,0.06,0,0,1-.0684-0.0684V84.4134Z" transform="translate(-25.4 -58.56)" fill="#699fa5"/><path d="M133.4326,84.3451a0.06,0.06,0,0,1,.0684.0684v0.3623a0.06,0.06,0,0,1-.0684.0684l-1.1211.1162a0.06,0.06,0,0,0-.0684.0684V91.29l4.6416-5.6738a0.0842,0.0842,0,0,0,.0342-0.0684v-0.52a0.0634,0.0634,0,0,0-.0752-0.0684l-1.1211-.1162a0.06,0.06,0,0,1-.0684-0.0684V84.4134a0.06,0.06,0,0,1,.0684-0.0684h3.6709a0.06,0.06,0,0,1,.0684.0684v0.3623a0.06,0.06,0,0,1-.0684.0684l-1.1895.1162a0.06,0.06,0,0,0-.0684.0684v8.0527a0.06,0.06,0,0,0,.0684.0684l1.1895,0.1094a0.0638,0.0638,0,0,1,.0684.0752v0.3623a0.06,0.06,0,0,1-.0684.0684h-3.6709a0.06,0.06,0,0,1-.0684-0.0684V93.3343a0.0638,0.0638,0,0,1,.0684-0.0752l1.1211-.1094a0.0634,0.0634,0,0,0,.0752-0.0684V86.642l-4.6484,5.667a0.0939,0.0939,0,0,0-.0273.0684v0.7041a0.06,0.06,0,0,0,.0684.0684l1.1211,0.1094a0.0638,0.0638,0,0,1,.0684.0752v0.3623a0.06,0.06,0,0,1-.0684.0684h-3.6709a0.06,0.06,0,0,1-.0684-0.0684V93.3343a0.0638,0.0638,0,0,1,.0684-0.0752l1.1895-.1094a0.06,0.06,0,0,0,.0684-0.0684V85.0287a0.06,0.06,0,0,0-.0684-0.0684l-1.1895-.1162a0.06,0.06,0,0,1-.0684-0.0684V84.4134a0.06,0.06,0,0,1,.0684-0.0684h3.6709Z" transform="translate(-25.4 -58.56)" fill="#699fa5"/><path d="M143.8438,84.3451a0.06,0.06,0,0,1,.0684.0684v0.3623a0.06,0.06,0,0,1-.0684.0684l-1.0459.1162a0.0634,0.0634,0,0,0-.0752.0684v2.2559a2.5705,2.5705,0,0,0,.12.8613,1.0662,1.0662,0,0,0,.3794.5156,1.5765,1.5765,0,0,0,.6665.26,5.5457,5.5457,0,0,0,.9673.0723c0.064,0,.1494-0.002.2563-0.0068s0.2212-.0146.3418-0.03,0.2471-.0332.3794-0.0518,0.2573-.0361.376-0.0547a0.0891,0.0891,0,0,0,.0752-0.0684V85.0287a0.0634,0.0634,0,0,0-.0752-0.0684l-1.0459-.1162a0.06,0.06,0,0,1-.0684-0.0684V84.4134a0.06,0.06,0,0,1,.0684-0.0684h3.5957a0.06,0.06,0,0,1,.0684.0684v0.3623a0.06,0.06,0,0,1-.0684.0684l-1.1895.1162a0.06,0.06,0,0,0-.0684.0684v8.0527a0.06,0.06,0,0,0,.0684.0684l1.1895,0.1094a0.0638,0.0638,0,0,1,.0684.0752v0.3623a0.06,0.06,0,0,1-.0684.0684h-3.876a0.06,0.06,0,0,1-.0684-0.0684V93.3343a0.0638,0.0638,0,0,1,.0684-0.0752l1.3262-.1094a0.0634,0.0634,0,0,0,.0752-0.0684V89.3558c-0.1411.0547-.2983,0.1123-0.4717,0.1748-0.1733.0605-.353,0.1172-0.54,0.167s-0.38.0928-.5811,0.126a3.4394,3.4394,0,0,1-.5947.0518,4.358,4.358,0,0,1-1.1758-.14,2.0327,2.0327,0,0,1-.8066-0.4209,1.6451,1.6451,0,0,1-.4614-0.708,3.1207,3.1207,0,0,1-.147-1.0146V85.0287a0.06,0.06,0,0,0-.0684-0.0684l-1.1074-.1162a0.06,0.06,0,0,1-.0684-0.0684V84.4134a0.06,0.06,0,0,1,.0684-0.0684h3.5137Z" transform="translate(-25.4 -58.56)" fill="#699fa5"/><path d="M156.627,84.3451a0.06,0.06,0,0,1,.0684.0684v2.1943a0.0636,0.0636,0,0,1-.0684.0752h-0.52a0.0556,0.0556,0,0,1-.0684-0.0547l-0.28-1.5859a0.0552,0.0552,0,0,0-.0684-0.0547h-3.2061a0.0606,0.0606,0,0,0-.0684.0684v3.459a0.0606,0.0606,0,0,0,.0684.0684h1.9277c0.0508,0,.0752-0.0186.0752-0.0547l0.1367-1.1348a0.0556,0.0556,0,0,1,.0684-0.0547h0.3828a0.06,0.06,0,0,1,.0684.0684V90.45a0.06,0.06,0,0,1-.0684.0684h-0.3828a0.0556,0.0556,0,0,1-.0684-0.0547L154.4873,89.26a0.0609,0.0609,0,0,0-.0752-0.0615h-1.9277a0.064,0.064,0,0,0-.0684.0752v3.78a0.0606,0.0606,0,0,0,.0684.0684h3.3975c0.0508,0,.0752-0.0186.0752-0.0547l0.28-1.5586a0.0556,0.0556,0,0,1,.0684-0.0547h0.52a0.06,0.06,0,0,1,.0684.0684v2.1738a0.06,0.06,0,0,1-.0684.0684h-6.8906a0.06,0.06,0,0,1-.0684-0.0684V93.3343a0.0638,0.0638,0,0,1,.0684-0.0752l1.1895-.1094a0.06,0.06,0,0,0,.0684-0.0684v-8.08a0.08,0.08,0,0,0-.0684-0.041l-1.1895-.1162a0.06,0.06,0,0,1-.0684-0.0684V84.4134a0.06,0.06,0,0,1,.0684-0.0684h6.6924Z" transform="translate(-25.4 -58.56)" fill="#699fa5"/><path d="M163.3877,84.1332a5.5676,5.5676,0,0,1,.5742.0342c0.2148,0.0225.4307,0.0508,0.6494,0.0859,0.2188,0.0332.4346,0.0713,0.6465,0.1123s0.3955,0.0752.55,0.1025a0.0726,0.0726,0,0,1,.0752.0684v2.1191a0.0632,0.0632,0,0,1-.0752.0684h-0.54a0.1007,0.1007,0,0,1-.0547-0.0137,0.0453,0.0453,0,0,1-.0205-0.041l-0.28-1.5723a0.0794,0.0794,0,0,0-.0547-0.0684c-0.082-.0186-0.1865-0.043-0.3145-0.0752s-0.2588-.0625-0.3926-0.0928-0.2734-.0527-0.417-0.0713a3.2253,3.2253,0,0,0-.4141-0.0273,4.51,4.51,0,0,0-1.6641.2871,3.3729,3.3729,0,0,0-1.2275.8135,3.5191,3.5191,0,0,0-.7588,1.2617,4.8242,4.8242,0,0,0-.26,1.6162,5.56,5.56,0,0,0,.2734,1.75,4.6106,4.6106,0,0,0,.7793,1.4561,3.6991,3.6991,0,0,0,1.2207.9912,3.45,3.45,0,0,0,1.582.3623c0.1006,0,.2236-0.0049.3691-0.0137s0.291-.0225.4346-0.041,0.2861-.041.4268-0.0684a1.2416,1.2416,0,0,0,.3623-0.123,0.0922,0.0922,0,0,0,.0547-0.0752l0.28-1.5791a0.0568,0.0568,0,0,1,.0205-0.0342,0.0744,0.0744,0,0,1,.0547-0.0205h0.54a0.0632,0.0632,0,0,1,.0752.0684v2.1123a0.0885,0.0885,0,0,1-.0752.0684q-0.2314.0615-.5127,0.123t-0.6113.1162c-0.2217.0361-.459,0.0674-0.7148,0.0918s-0.5371.0381-.8477,0.0381a5.9585,5.9585,0,0,1-1.4385-.167,4.9863,4.9863,0,0,1-1.2412-.4863,4.5886,4.5886,0,0,1-1.0078-.7578,4.499,4.499,0,0,1-.7422-0.9785,4.9515,4.9515,0,0,1-.4678-1.1758,5.41,5.41,0,0,1,.0273-2.7783,4.5979,4.5979,0,0,1,.5537-1.2236,4.5349,4.5349,0,0,1,.8477-0.9746,5.0486,5.0486,0,0,1,1.0762-.707,5.5349,5.5349,0,0,1,1.2686-.4336A6.5213,6.5213,0,0,1,163.3877,84.1332Z" transform="translate(-25.4 -58.56)" fill="#699fa5"/><path d="M170.9346,84.3451a0.06,0.06,0,0,1,.0684.0684v0.3623a0.06,0.06,0,0,1-.0684.0684l-1.1895.1162a0.0606,0.0606,0,0,0-.0684.0684v3.5137a0.0552,0.0552,0,0,0,.0547.0684,2.7777,2.7777,0,0,0,.79-0.1025,2.029,2.029,0,0,0,.625-0.3076,2.2207,2.2207,0,0,0,.4961-0.5059,5.3076,5.3076,0,0,0,.4131-0.69l0.6836-1.415a5.1618,5.1618,0,0,1,.4-0.67,2.3017,2.3017,0,0,1,.42-0.4551,1.5109,1.5109,0,0,1,.4482-0.252,1.4641,1.4641,0,0,1,.4814-0.0791,1.5377,1.5377,0,0,1,.2295.0205,1.408,1.408,0,0,1,.2666.0684,1.5361,1.5361,0,0,1,.2529.1191,1.1,1.1,0,0,1,.2012.1543,0.1832,0.1832,0,0,1,.0313.0645c0.0107,0.0352.0059,0.0566-.0176,0.0654l-0.6836.9365a0.1449,0.1449,0,0,1-.0547.0547,0.06,0.06,0,0,1-.0547,0,1.397,1.397,0,0,0-.2764-0.2285,0.5489,0.5489,0,0,0-.2979-0.0928,0.8026,0.8026,0,0,0-.4512.167,1.4222,1.4222,0,0,0-.4307.6191l-0.3486.752c-0.1045.2139-.2178,0.4277-0.3379,0.6387a4.855,4.855,0,0,1-.3867.582,3.8079,3.8079,0,0,1-.4131.4541,1.4108,1.4108,0,0,1-.4072.2734,3.43,3.43,0,0,1,.54.208,2.2629,2.2629,0,0,1,.5059.3457,3.5052,3.5052,0,0,1,.4756.5264A6.6589,6.6589,0,0,1,173.3,90.6l1.3057,2.4951a0.12,0.12,0,0,0,.0957.0547l1.0186,0.1094a0.0663,0.0663,0,0,1,.0752.0752v0.3623a0.0632,0.0632,0,0,1-.0752.0684h-2.1943a0.1389,0.1389,0,0,1-.1025-0.0547l-1.2715-2.7a4.4622,4.4622,0,0,0-.6016-0.9844,2.8136,2.8136,0,0,0-.6152-0.5576,1.766,1.766,0,0,0-.6084-0.252,3.03,3.03,0,0,0-.5811-0.0586,0.0606,0.0606,0,0,0-.0684.0684v3.8555a0.0606,0.0606,0,0,0,.0684.0684l1.1895,0.1094a0.0636,0.0636,0,0,1,.0684.0752v0.3623a0.06,0.06,0,0,1-.0684.0684H167.168a0.0606,0.0606,0,0,1-.0684-0.0684V93.3343a0.064,0.064,0,0,1,.0684-0.0752l1.1895-.1094a0.06,0.06,0,0,0,.0684-0.0684V85.0287a0.06,0.06,0,0,0-.0684-0.0684l-1.1895-.1162a0.0606,0.0606,0,0,1-.0684-0.0684V84.4134a0.0606,0.0606,0,0,1,.0684-0.0684h3.7666Z" transform="translate(-25.4 -58.56)" fill="#699fa5"/><path d="M182.1318,93.765a0.0606,0.0606,0,0,1-.0684-0.0684V93.3343a0.064,0.064,0,0,1,.0684-0.0752l1.0938-.1094a0.0543,0.0543,0,0,0,.0547-0.0273,0.0827,0.0827,0,0,0,0-.0684l-1.0391-2.748a0.0718,0.0718,0,0,0-.0547-0.041h-3.0488a0.0841,0.0841,0,0,0-.0547.041l-1.1074,2.7754c-0.0225.06,0,.0908,0.0684,0.0957l1.0527,0.082a0.0675,0.0675,0,0,1,.0684.0752v0.3623a0.06,0.06,0,0,1-.0684.0684h-3.0283A0.0606,0.0606,0,0,1,176,93.6966V93.3343a0.064,0.064,0,0,1,.0684-0.0752l1.1484-.1094a0.0819,0.0819,0,0,0,.0547-0.041l3.5615-8.9619a0.0748,0.0748,0,0,1,.0547-0.041h0.3486a0.0819,0.0819,0,0,1,.0547.041l3.2744,8.9482a0.059,0.059,0,0,0,.0615.041l1.1143,0.123a0.0613,0.0613,0,0,1,.0615.0752v0.3623a0.0632,0.0632,0,0,1-.0752.0684h-3.5957Zm-1.36-7.5332a0.0718,0.0718,0,0,0-.0547-0.041,0.0541,0.0541,0,0,0-.0547.041l-1.3193,3.35c-0.0273.0635-.0068,0.0957,0.0615,0.0957h2.5293c0.0732,0,.0986-0.0322.0752-0.0957Z" transform="translate(-25.4 -58.56)" fill="#699fa5"/><path d="M194.5527,84.3451a0.06,0.06,0,0,1,.0684.0684v0.3623a0.06,0.06,0,0,1-.0684.0684l-1.1963.1162a0.0606,0.0606,0,0,0-.0684.0684v8.0527a0.0606,0.0606,0,0,0,.0684.0684l1.1963,0.1094a0.0636,0.0636,0,0,1,.0684.0752v0.3623a0.06,0.06,0,0,1-.0684.0684h-3.91a0.0606,0.0606,0,0,1-.0684-0.0684V93.3343a0.064,0.064,0,0,1,.0684-0.0752l1.333-.1094a0.06,0.06,0,0,0,.0684-0.0684V89.4242a0.0453,0.0453,0,0,0-.0205-0.041,0.086,0.086,0,0,0-.0479-0.0137H191.75a2.6044,2.6044,0,0,0-.6084.0684,1.5915,1.5915,0,0,0-.5605.2666,2.61,2.61,0,0,0-.54.5537,5.2614,5.2614,0,0,0-.5332.93L188.3047,93.71a0.0975,0.0975,0,0,1-.0957.0547h-2.2012a0.0606,0.0606,0,0,1-.0684-0.0684V93.3343a0.064,0.064,0,0,1,.0684-0.0752l1.0254-.1094a0.0975,0.0975,0,0,0,.0957-0.0547l1.23-2.3105q0.1582-.28.3115-0.5332a2.9587,2.9587,0,0,1,.3281-0.4473,2.1094,2.1094,0,0,1,.4063-0.35,2.4176,2.4176,0,0,1,.5264-0.2559,4.0285,4.0285,0,0,1-1.0146-.3047,2.5423,2.5423,0,0,1-.7725-0.5332,2.402,2.402,0,0,1-.4922-0.7207,2.1187,2.1187,0,0,1-.1748-0.8613,2.2929,2.2929,0,0,1,.2393-1.0293,2.3163,2.3163,0,0,1,.7451-0.8437,2.6694,2.6694,0,0,1,1.166-.4512,10.2476,10.2476,0,0,1,1.5889-.1094h3.3359Zm-5.6738,2.4473a1.7967,1.7967,0,0,0,.2188.9121,1.8286,1.8286,0,0,0,.5674.6152,2.5862,2.5862,0,0,0,.79.3555,3.4287,3.4287,0,0,0,.9053.12h0.6289a0.0548,0.0548,0,0,0,.0547-0.0684V85.056a0.06,0.06,0,0,0-.0684-0.0684H191.47a7.6839,7.6839,0,0,0-1.001.0615,2.3245,2.3245,0,0,0-.8271.26,1.4308,1.4308,0,0,0-.5605.5469A1.8641,1.8641,0,0,0,188.8789,86.7923Z" transform="translate(-25.4 -58.56)" fill="#699fa5"/></g><g style="isolation:isolate"><path d="M205.6338,84.3451a0.06,0.06,0,0,1,.0684.0684v2.1943a0.0636,0.0636,0,0,1-.0684.0752h-0.52a0.1146,0.1146,0,0,1-.041-0.0137,0.0442,0.0442,0,0,1-.0273-0.041l-0.28-1.5859a0.0453,0.0453,0,0,0-.0205-0.041,0.0984,0.0984,0,0,0-.0547-0.0137h-3.1172a0.0606,0.0606,0,0,0-.0684.0684v3.165a0.0606,0.0606,0,0,0,.0684.0684h0.6836q0.52,0,.9678.0137a4.7537,4.7537,0,0,1,.8477.0986,3.45,3.45,0,0,1,.7549.2539,3.21,3.21,0,0,1,.7041.4609,2.1838,2.1838,0,0,1,.626.8271,2.5165,2.5165,0,0,1,.2148,1.0186,2.6629,2.6629,0,0,1-.0273.3789,3.38,3.38,0,0,1-.082.4072,2.4068,2.4068,0,0,1-.14.3994,2.8893,2.8893,0,0,1-.1953.3594,2.3637,2.3637,0,0,1-.4717.4961,2.8009,2.8009,0,0,1-.707.3965,5.0051,5.0051,0,0,1-.9814.2656,7.4915,7.4915,0,0,1-1.2988.1h-3.4453a0.0606,0.0606,0,0,1-.0684-0.0684V93.3343a0.064,0.064,0,0,1,.0684-0.0752l1.1895-.1094a0.06,0.06,0,0,0,.0684-0.0684V85.0287a0.06,0.06,0,0,0-.0684-0.0684l-1.1895-.1162a0.0606,0.0606,0,0,1-.0684-0.0684V84.4134a0.0606,0.0606,0,0,1,.0684-0.0684h6.61Zm-4.0605,8.7773h0.8545a4.0748,4.0748,0,0,0,1.1455-.1406,2.0624,2.0624,0,0,0,.7822-0.4062,1.65,1.65,0,0,0,.4551-0.6289,2.3756,2.3756,0,0,0-.0684-1.8086,1.8541,1.8541,0,0,0-.6016-0.6865,2.7333,2.7333,0,0,0-.8955-0.3936,4.562,4.562,0,0,0-1.0977-.126h-0.5742a0.064,0.064,0,0,0-.0684.0752v4.0469A0.0606,0.0606,0,0,0,201.5732,93.1224Z" transform="translate(-25.4 -58.56)" fill="#699fa5"/><path d="M212.21,84.1332a4.4727,4.4727,0,0,1,3.4248,1.3945,4.8952,4.8952,0,0,1,1.2783,3.4932,4.9562,4.9562,0,0,1-1.2852,3.5068,4.4278,4.4278,0,0,1-3.418,1.4355,4.6249,4.6249,0,0,1-3.459-1.3877,4.8081,4.8081,0,0,1-1.3535-3.5,4.9,4.9,0,0,1,1.333-3.5273A4.6174,4.6174,0,0,1,212.21,84.1332Zm-0.1641.6289a2.9149,2.9149,0,0,0-2.4814,1.2373,4.5252,4.5252,0,0,0-.8135,2.7412,5.8286,5.8286,0,0,0,.3965,2.167,4.1221,4.1221,0,0,0,1.2988,1.7676,3.1071,3.1071,0,0,0,1.9482.6592,2.76,2.76,0,0,0,2.4336-1.2715,4.8807,4.8807,0,0,0,.7314-2.7617,5.2807,5.2807,0,0,0-.9229-3.1514A3.047,3.047,0,0,0,212.0459,84.7621Z" transform="translate(-25.4 -58.56)" fill="#699fa5"/><path d="M226.7979,84.3451a0.06,0.06,0,0,1,.0684.0684v0.3623a0.06,0.06,0,0,1-.0684.0684l-1.1895.1162a0.0606,0.0606,0,0,0-.0684.0684v8.0527a0.0606,0.0606,0,0,0,.0684.0684l1.1895,0.1094a0.0636,0.0636,0,0,1,.0684.0752v0.3623a0.06,0.06,0,0,1-.0684.0684H223.127a0.0606,0.0606,0,0,1-.0684-0.0684V93.3343a0.064,0.064,0,0,1,.0684-0.0752l1.1211-.1094a0.0632,0.0632,0,0,0,.0752-0.0684V85.0287a0.0632,0.0632,0,0,0-.0752-0.0684h-2.167c-0.0273,0-.041.0225-0.041,0.0684q-0.041.91-.0986,1.8418-0.0586.9346-.1641,1.8223t-0.2666,1.7051a10.0826,10.0826,0,0,1-.4072,1.4941,4.14,4.14,0,0,1-.9189,1.5518,1.7311,1.7311,0,0,1-1.2412.52c-0.0908,0-.1875-0.0049-0.29-0.0137a1.4177,1.4177,0,0,1-.3252-0.0713,1.7821,1.7821,0,0,1-.3311-0.1543,1.8162,1.8162,0,0,1-.3252-0.2529,0.2336,0.2336,0,0,1-.0342-0.0547,0.1022,0.1022,0,0,1,.0205-0.1025l0.7246-.9912a0.0791,0.0791,0,0,1,.0859-0.041,0.1487,0.1487,0,0,1,.0576.0273,1.1718,1.1718,0,0,0,.3691.2734,0.8594,0.8594,0,0,0,.3281.0752A1.2084,1.2084,0,0,0,219.49,92.63a0.7351,0.7351,0,0,0,.25-0.1133,1.2646,1.2646,0,0,0,.2461-0.2246,2.2564,2.2564,0,0,0,.2354-0.3457,5.0364,5.0364,0,0,0,.3252-0.8408q0.1465-.4922.2666-1.0732t0.2051-1.21q0.085-.6284.1465-1.2881t0.082-1.2959q0.0205-.6357.0342-1.21a0.0975,0.0975,0,0,0-.0137-0.041,0.0543,0.0543,0,0,0-.0547-0.0273l-1.333-.1162a0.0606,0.0606,0,0,1-.0684-0.0684V84.4134a0.0606,0.0606,0,0,1,.0684-0.0684h6.918Z" transform="translate(-25.4 -58.56)" fill="#699fa5"/><path d="M231.85,84.3451a0.0632,0.0632,0,0,1,.0752.0684v0.3623a0.0632,0.0632,0,0,1-.0752.0684l-1.3262.1162a0.0606,0.0606,0,0,0-.0684.0684v3.124a0.0606,0.0606,0,0,0,.0684.0684h0.6836q0.52,0,.9678.0137a4.7537,4.7537,0,0,1,.8477.0986,3.45,3.45,0,0,1,.7549.2539,3.21,3.21,0,0,1,.7041.4609,2.1891,2.1891,0,0,1,.626.8242,2.5031,2.5031,0,0,1,.2148,1.0215,3.0637,3.0637,0,0,1-.0273.4063,3.5,3.5,0,0,1-.082.4277,2.6437,2.6437,0,0,1-.14.4141,2.7678,2.7678,0,0,1-.1953.3652,2.3637,2.3637,0,0,1-.4717.4961,2.8009,2.8009,0,0,1-.707.3965,5.0051,5.0051,0,0,1-.9814.2656,7.4915,7.4915,0,0,1-1.2988.1h-3.4453a0.0606,0.0606,0,0,1-.0684-0.0684V93.3343a0.064,0.064,0,0,1,.0684-0.0752l1.1895-.1094a0.06,0.06,0,0,0,.0684-0.0684V85.0287a0.06,0.06,0,0,0-.0684-0.0684l-1.1895-.1162a0.0606,0.0606,0,0,1-.0684-0.0684V84.4134a0.0606,0.0606,0,0,1,.0684-0.0684h3.876Zm-1.3262,8.7773h0.8545a4.0748,4.0748,0,0,0,1.1455-.1406,2.0048,2.0048,0,0,0,.7822-0.4131,1.6737,1.6737,0,0,0,.4551-0.6533,2.3406,2.3406,0,0,0,.1465-0.8506,2.1607,2.1607,0,0,0-.2148-0.9951,1.8541,1.8541,0,0,0-.6016-0.6865,2.7333,2.7333,0,0,0-.8955-0.3936,4.562,4.562,0,0,0-1.0977-.126h-0.5742a0.0606,0.0606,0,0,0-.0684.0684v4.1221A0.0606,0.0606,0,0,0,230.5234,93.1224Z" transform="translate(-25.4 -58.56)" fill="#699fa5"/><path d="M236.334,84.4134a0.0606,0.0606,0,0,1,.0684-0.0684h3.6709a0.06,0.06,0,0,1,.0684.0684v0.3623a0.06,0.06,0,0,1-.0684.0684l-1.1211.1162a0.0606,0.0606,0,0,0-.0684.0684v3.3906q0,0.041.0205,0.041h4.498a0.0522,0.0522,0,0,0,.0137-0.041V85.0287a0.06,0.06,0,0,0-.0684-0.0684l-1.1211-.1162a0.0606,0.0606,0,0,1-.0684-0.0684V84.4134a0.0606,0.0606,0,0,1,.0684-0.0684h3.6709a0.06,0.06,0,0,1,.0684.0684v0.3623a0.06,0.06,0,0,1-.0684.0684l-1.1963.1162a0.0606,0.0606,0,0,0-.0684.0684v8.0527a0.0606,0.0606,0,0,0,.0684.0684l1.1963,0.1094a0.0636,0.0636,0,0,1,.0684.0752v0.3623a0.06,0.06,0,0,1-.0684.0684h-3.6709a0.0606,0.0606,0,0,1-.0684-0.0684V93.3343a0.064,0.064,0,0,1,.0684-0.0752l1.1211-.1094a0.06,0.06,0,0,0,.0684-0.0684v-3.91a0.06,0.06,0,0,0-.0684-0.0684h-4.3955a0.0606,0.0606,0,0,0-.0684.0684v3.91a0.0606,0.0606,0,0,0,.0684.0684l1.1211,0.1094a0.0636,0.0636,0,0,1,.0684.0752v0.3623a0.06,0.06,0,0,1-.0684.0684h-3.6709a0.0606,0.0606,0,0,1-.0684-0.0684V93.3343a0.064,0.064,0,0,1,.0684-0.0752l1.1895-.1094a0.06,0.06,0,0,0,.0684-0.0684V85.0287a0.06,0.06,0,0,0-.0684-0.0684l-1.1895-.1162a0.0606,0.0606,0,0,1-.0684-0.0684V84.4134Z" transform="translate(-25.4 -58.56)" fill="#699fa5"/><path d="M250.7441,84.3451a0.06,0.06,0,0,1,.0684.0684v0.3623a0.06,0.06,0,0,1-.0684.0684l-1.1211.1162a0.0606,0.0606,0,0,0-.0684.0684V91.29l4.6416-5.6738a0.0828,0.0828,0,0,0,.0342-0.0684v-0.52a0.0632,0.0632,0,0,0-.0752-0.0684l-1.1211-.1162a0.0606,0.0606,0,0,1-.0684-0.0684V84.4134a0.0606,0.0606,0,0,1,.0684-0.0684h3.6709a0.06,0.06,0,0,1,.0684.0684v0.3623a0.06,0.06,0,0,1-.0684.0684l-1.1895.1162a0.0606,0.0606,0,0,0-.0684.0684v8.0527a0.0606,0.0606,0,0,0,.0684.0684l1.1895,0.1094a0.0636,0.0636,0,0,1,.0684.0752v0.3623a0.06,0.06,0,0,1-.0684.0684h-3.6709a0.0606,0.0606,0,0,1-.0684-0.0684V93.3343a0.064,0.064,0,0,1,.0684-0.0752l1.1211-.1094a0.0632,0.0632,0,0,0,.0752-0.0684V86.642l-4.6484,5.667a0.0959,0.0959,0,0,0-.0273.0684v0.7041a0.0606,0.0606,0,0,0,.0684.0684l1.1211,0.1094a0.0636,0.0636,0,0,1,.0684.0752v0.3623a0.06,0.06,0,0,1-.0684.0684h-3.6709a0.0606,0.0606,0,0,1-.0684-0.0684V93.3343a0.064,0.064,0,0,1,.0684-0.0752l1.1895-.1094a0.06,0.06,0,0,0,.0684-0.0684V85.0287a0.06,0.06,0,0,0-.0684-0.0684l-1.1895-.1162a0.0606,0.0606,0,0,1-.0684-0.0684V84.4134a0.0606,0.0606,0,0,1,.0684-0.0684h3.6709Z" transform="translate(-25.4 -58.56)" fill="#699fa5"/><path d="M261.5518,84.3451a0.06,0.06,0,0,1,.0684.0684v0.3623a0.06,0.06,0,0,1-.0684.0684l-1.1211.1162a0.0606,0.0606,0,0,0-.0684.0684v8.0254a0.0606,0.0606,0,0,0,.0684.0684h4.0605a0.06,0.06,0,0,0,.0684-0.0684V85.0287a0.06,0.06,0,0,0-.0684-0.0684l-1.1211-.1162a0.0606,0.0606,0,0,1-.0684-0.0684V84.4134a0.0606,0.0606,0,0,1,.0684-0.0684h3.6641a0.0632,0.0632,0,0,1,.0752.0684v0.3623a0.0632,0.0632,0,0,1-.0752.0684l-1.1895.1162a0.0606,0.0606,0,0,0-.0684.0684v8.0254a0.0606,0.0606,0,0,0,.0684.0684h1.5313a0.0543,0.0543,0,0,1,.0547.0273,0.1135,0.1135,0,0,1,.0137.0547v3.1514a0.06,0.06,0,0,1-.0684.0684H266.87a0.1146,0.1146,0,0,1-.041-0.0137,0.0442,0.0442,0,0,1-.0273-0.041l-0.4648-2.55a0.0453,0.0453,0,0,0-.0205-0.041,0.086,0.086,0,0,0-.0479-0.0137h-8.3877a0.0606,0.0606,0,0,1-.0684-0.0684V93.3343a0.064,0.064,0,0,1,.0684-0.0752L259.07,93.15a0.06,0.06,0,0,0,.0684-0.0684V85.0287A0.06,0.06,0,0,0,259.07,84.96l-1.1895-.1162a0.0606,0.0606,0,0,1-.0684-0.0684V84.4134a0.0606,0.0606,0,0,1,.0684-0.0684h3.6709Z" transform="translate(-25.4 -58.56)" fill="#699fa5"/><path d="M273.9248,93.765a0.0606,0.0606,0,0,1-.0684-0.0684V93.3343a0.064,0.064,0,0,1,.0684-0.0752l1.0938-.1094a0.0543,0.0543,0,0,0,.0547-0.0273,0.0827,0.0827,0,0,0,0-.0684l-1.0391-2.748a0.0718,0.0718,0,0,0-.0547-0.041h-3.0488a0.0841,0.0841,0,0,0-.0547.041l-1.1074,2.7754c-0.0225.06,0,.0908,0.0684,0.0957l1.0527,0.082a0.0675,0.0675,0,0,1,.0684.0752v0.3623a0.06,0.06,0,0,1-.0684.0684h-3.0283a0.0606,0.0606,0,0,1-.0684-0.0684V93.3343a0.064,0.064,0,0,1,.0684-0.0752L269.01,93.15a0.0819,0.0819,0,0,0,.0547-0.041l3.5615-8.9619a0.0748,0.0748,0,0,1,.0547-0.041h0.3486a0.0819,0.0819,0,0,1,.0547.041l3.2744,8.9482a0.059,0.059,0,0,0,.0615.041l1.1143,0.123a0.0613,0.0613,0,0,1,.0615.0752v0.3623a0.0632,0.0632,0,0,1-.0752.0684h-3.5957Zm-1.36-7.5332a0.0718,0.0718,0,0,0-.0547-0.041,0.0541,0.0541,0,0,0-.0547.041l-1.3193,3.35c-0.0273.0635-.0068,0.0957,0.0615,0.0957h2.5293c0.0732,0,.0986-0.0322.0752-0.0957Z" transform="translate(-25.4 -58.56)" fill="#699fa5"/></g></g></svg>