<svg width="53" height="54" viewBox="0 0 53 54" fill="none" xmlns="http://www.w3.org/2000/svg">
<path d="M26.5 0C16.2259 0 7.86719 8.51639 7.86719 18.9844C7.86719 22.5212 8.82874 25.9727 10.6485 28.9672L25.4394 53.2521C25.7227 53.7173 26.2219 54 26.7587 54C26.7628 54 26.7669 54 26.771 54C27.3125 53.9957 27.8127 53.7043 28.0908 53.2309L42.5047 28.7107C44.224 25.7795 45.1328 22.4162 45.1328 18.9844C45.1328 8.51639 36.7741 0 26.5 0ZM39.8396 27.0863L26.7352 49.379L13.288 27.3002C11.7732 24.8077 10.952 21.9322 10.952 18.9844C10.952 10.2611 17.9382 3.14297 26.5 3.14297C35.0618 3.14297 42.0377 10.2611 42.0377 18.9844C42.0377 21.8448 41.2705 24.6468 39.8396 27.0863Z" fill="#6FA3A9"/>
<path d="M26.5 9.49219C21.3629 9.49219 17.1836 13.7504 17.1836 18.9844C17.1836 24.1849 21.2949 28.4766 26.5 28.4766C31.7693 28.4766 35.8164 24.1278 35.8164 18.9844C35.8164 13.7504 31.6371 9.49219 26.5 9.49219ZM26.5 25.3336C23.0574 25.3336 20.2684 22.4825 20.2684 18.9844C20.2684 15.495 23.0753 12.6352 26.5 12.6352C29.9247 12.6352 32.7213 15.495 32.7213 18.9844C32.7213 22.4314 29.9972 25.3336 26.5 25.3336Z" fill="#6FA3A9"/>
</svg>
