<svg width="13" height="12" viewBox="0 0 13 12" fill="none" xmlns="http://www.w3.org/2000/svg">
<rect width="12.48" height="11.5102" fill="white"/>
<path d="M8.69037 4.93655C8.48705 4.74903 8.15841 4.74903 7.95509 4.93655L7.12621 5.70102C6.74193 5.59551 6.02485 5.35572 5.57037 4.93655C5.11589 4.51739 4.85589 3.85603 4.74149 3.50162L5.57037 2.73715C5.77369 2.54963 5.77369 2.24653 5.57037 2.05901L3.49035 0.14064C3.28703 -0.0468801 2.95839 -0.0468801 2.75507 0.14064L1.34483 1.44129C1.14723 1.62354 1.03595 1.87389 1.04011 2.12951C1.05207 2.81245 1.24811 5.1845 3.27507 7.05395C5.30205 8.9234 7.87397 9.10373 8.61497 9.11524C8.61757 9.11524 8.62693 9.11524 8.62953 9.11524C8.90409 9.11524 9.16357 9.01548 9.36013 8.8342L10.7704 7.53355C10.9737 7.34602 10.9737 7.04292 10.7704 6.8554L8.69037 4.93655ZM8.62433 8.15557C7.97537 8.1455 5.75497 7.98484 4.01035 6.37533C2.26003 4.76102 2.09051 2.70598 2.08011 2.11944L3.12271 1.15785L4.46743 2.39808L3.79507 3.01819C3.67079 3.13233 3.61775 3.29731 3.65363 3.45558C3.66611 3.51073 3.97135 4.81857 4.83457 5.6147C5.69777 6.41082 7.11581 6.69234 7.17561 6.70385C7.34877 6.7379 7.52609 6.6885 7.64985 6.57388L8.32273 5.95377L9.66745 7.19399L8.62433 8.15557Z" fill="#699FA5"/>
</svg>
