<svg width="50" height="49" viewBox="0 0 50 49" fill="none" xmlns="http://www.w3.org/2000/svg">
<path d="M25 0.840698C29.4355 0.840698 33.6694 2.00394 37.5 4.13655C41.3306 6.26915 44.3548 9.17725 46.5726 12.8608C48.7903 16.5444 50 20.6158 50 24.881C50 29.243 48.7903 33.2176 46.5726 36.9011C44.3548 40.5847 41.3306 43.5896 37.5 45.7225C33.6694 47.8548 29.4355 48.9213 25 48.9213C20.4639 48.9213 16.3306 47.8548 12.5 45.7225C8.66935 43.5896 5.54435 40.5847 3.32661 36.9011C1.10887 33.2176 0 29.243 0 24.881C0 20.6158 1.10887 16.5444 3.32661 12.8608C5.54435 9.17725 8.66935 6.26915 12.5 4.13655C16.3306 2.00394 20.4639 0.840698 25 0.840698ZM37.2984 17.3199C37.3994 16.5444 37.2984 16.0598 36.8952 15.672C36.4919 15.2843 36.0887 15.1873 35.5845 15.3812L11.4919 24.3965C10.5847 24.6871 10.0806 24.9778 10.0806 25.3655C10.0806 25.7533 10.3831 26.0442 11.1895 26.2381L17.3387 28.0798L31.6532 19.4525C31.9555 19.2587 32.2581 19.2587 32.4597 19.2587C32.6613 19.3558 32.6613 19.4525 32.4597 19.6464L20.8671 29.7278L20.3629 35.8347C20.7661 35.8347 21.2703 35.6411 21.6735 35.2534L24.6974 32.4421L30.9477 36.9011C32.1574 37.5799 32.8629 37.2889 33.1652 35.9318L37.2984 17.3199Z" fill="white"/>
</svg>
