<svg width="50" height="49" viewBox="0 0 50 49" fill="none" xmlns="http://www.w3.org/2000/svg">
<path d="M44.8244 12.8608C46.7775 11.1272 48.535 9.04676 50 6.50404C48.0469 7.54424 46.0938 8.23771 44.1406 8.46887C46.2891 6.85077 47.8516 4.65478 48.6328 1.76533C46.5819 3.15227 44.4338 4.19247 42.09 4.65478C41.1131 3.499 39.9412 2.57437 38.6719 1.8809C37.4025 1.18743 36.035 0.840698 34.5703 0.840698C32.715 0.840698 31.0547 1.41859 29.4922 2.4588C27.9297 3.61458 26.66 5.1171 25.7812 6.96635C24.8047 8.81561 24.4141 10.896 24.4141 12.9764C24.4141 13.9011 24.4141 14.8257 24.6094 15.7503C20.41 15.5191 16.5039 14.3634 12.793 12.0518C9.08203 9.85581 6.05469 6.85077 3.51562 3.03669C2.53906 5.00152 2.05078 7.08193 2.05078 9.16234C2.05078 11.2428 2.44141 13.2076 3.32031 14.9413C4.10156 16.7905 5.27344 18.1775 6.64062 19.3332C4.98047 19.3332 3.41797 18.7555 2.05078 17.7151V17.9463C2.05078 20.8356 2.83203 23.3787 4.39453 25.5745C5.95703 27.886 7.91016 29.273 10.2539 29.851C9.27734 30.0818 8.39844 30.1976 7.51953 30.1976C6.93359 30.1976 6.25 30.1976 5.66406 30.0818C6.25 32.5092 7.42188 34.4742 9.17969 36.0919C10.9375 37.7104 12.8906 38.4035 15.2344 38.4035C11.4258 41.8712 7.12891 43.6047 2.44141 43.6047C1.46484 43.6047 0.683594 43.6047 0 43.4889C4.6875 47.1874 9.96094 48.9213 15.7227 48.9213C21.6797 48.9213 26.9531 47.1874 31.6406 43.4889C35.84 40.2527 39.16 35.9765 41.5037 30.4288C43.75 25.3433 44.9219 19.9109 44.9219 14.3634C44.9219 13.6699 44.8244 13.2076 44.8244 12.8608Z" fill="white"/>
</svg>
